<svg id="图层_1" data-name="图层 1" xmlns="http://www.w3.org/2000/svg" width="138.57" height="48.27" viewBox="0 0 138.57 48.27">
  <defs>
    <style>
      .cls-1 {
        fill: #6997ff;
      }

      .cls-2 {
        fill: #232323;
      }

      .cls-3 {
        fill: #0047c6;
      }

      .cls-4 {
        fill: #002796;
      }

      .cls-5 {
        fill: #f7e71c;
      }
    </style>
  </defs>
  <title>银河</title>
  <g>
    <g>
      <ellipse class="cls-1" cx="69.28" cy="23.91" rx="67.78" ry="22.41"/>
      <path class="cls-2" d="M95.62,122c-38.85,0-69.29-10.5-69.29-23.91s30.44-23.9,69.29-23.9,69.28,10.5,69.28,23.9S134.47,122,95.62,122Zm0-44.81C56,77.19,29.33,88,29.33,98.09S56,119,95.62,119s66.28-10.81,66.28-20.91S135.27,77.19,95.62,77.19Z" transform="translate(-26.33 -74.19)"/>
    </g>
    <ellipse class="cls-3" cx="69.28" cy="24.83" rx="50.56" ry="16.72"/>
    <ellipse class="cls-4" cx="69.28" cy="28.12" rx="35.7" ry="11.8"/>
    <polygon class="cls-5" points="14.62 19.66 16.71 22.09 19.77 23 17.34 25.09 16.43 28.15 14.34 25.73 11.28 24.81 13.7 22.72 14.62 19.66"/>
    <polygon class="cls-5" points="111.43 20.92 112.89 22.63 115.05 23.27 113.34 24.74 112.7 26.89 111.23 25.19 109.07 24.54 110.78 23.07 111.43 20.92"/>
    <circle class="cls-5" cx="105.88" cy="43.09" r="5.18"/>
  </g>
</svg>
