<?xml version="1.0" standalone="no"?><!DOCTYPE svg PUBLIC "-//W3C//DTD SVG 1.1//EN" "http://www.w3.org/Graphics/SVG/1.1/DTD/svg11.dtd"><svg t="1633247628317" class="icon" viewBox="0 0 1024 1024" version="1.1" xmlns="http://www.w3.org/2000/svg" p-id="1749" width="32" height="32" xmlns:xlink="http://www.w3.org/1999/xlink"><defs><style type="text/css"></style></defs><path d="M512 85.319111c-235.633778 0-426.666667 191.032889-426.666667 426.666667 0 235.633778 191.032889 426.666667 426.666667 426.666666 235.633778 0 426.666667-191.032889 426.666667-426.666666 0-235.633778-191.032889-426.666667-426.666667-426.666667m0 85.333333c188.202667 0 341.333333 153.130667 341.333333 341.333334 0 188.216889-153.130667 341.333333-341.333333 341.333333s-341.333333-153.116444-341.333333-341.333333c0-188.202667 153.130667-341.333333 341.333333-341.333334" fill="#1296db" p-id="1750"></path><path d="M662.840889 705.493333a42.524444 42.524444 0 0 1-30.151111-12.501333L330.965333 391.296a42.638222 42.638222 0 0 1 0-60.330667 42.638222 42.638222 0 0 1 60.330667 0l301.696 301.696a42.638222 42.638222 0 0 1-30.151111 72.832" fill="#1296db" p-id="1751"></path><path d="M361.159111 705.493333a42.638222 42.638222 0 0 1-30.165333-72.832l301.696-301.696a42.638222 42.638222 0 0 1 60.330666 0 42.638222 42.638222 0 0 1 0 60.330667L391.324444 692.992a42.524444 42.524444 0 0 1-30.165333 12.515556" fill="#1296db" p-id="1752"></path></svg>